<?xml version="1.0" encoding="utf-8"?>
<!-- Generator: Adobe Illustrator 18.1.1, SVG Export Plug-In . SVG Version: 6.00 Build 0)  -->
<svg version="1.1" id="Layer_1" xmlns="http://www.w3.org/2000/svg" xmlns:xlink="http://www.w3.org/1999/xlink" x="0px" y="0px"
	 viewBox="0 0 1203 4922.5" enable-background="new 0 0 1203 4922.5" xml:space="preserve">
<g>
	<g opacity="0.15">
		<path fill="#0873A5" d="M1203,965.5V75.4C1011,26.2,810.2,0,603,0S195,26.2,3,75.4v890.1H1203z"/>
	</g>
	<g>
		<linearGradient id="SVGID_1_" gradientUnits="userSpaceOnUse" x1="600" y1="989.5443" x2="600" y2="43.8514">
			<stop  offset="0.2809" style="stop-color:#FFFFFF"/>
			<stop  offset="1" style="stop-color:#BDDFF1"/>
		</linearGradient>
		<path fill="url(#SVGID_1_)" d="M1200,1002.5v-890c-191-49.2-392.8-75.4-600-75.4S191.8,63.3,0,112.5v890H1200z"/>
	</g>
	<g opacity="0.5">
		<ellipse fill="#A3C8E0" cx="177.5" cy="225.2" rx="74.7" ry="40.6"/>
		<ellipse fill="#A3C8E0" cx="904.2" cy="161.3" rx="123.3" ry="46.1"/>
		<ellipse fill="#A3C8E0" cx="748.7" cy="93.9" rx="45.6" ry="14.6"/>
		<ellipse fill="#A3C8E0" cx="685.8" cy="368.4" rx="123.3" ry="76.6"/>
		<ellipse fill="#A3C8E0" cx="517.5" cy="354.4" rx="24.7" ry="15.3"/>
		<ellipse fill="#A3C8E0" cx="534.7" cy="382.8" rx="10.7" ry="6.6"/>
		<ellipse fill="#A3C8E0" cx="264.4" cy="260.4" rx="38" ry="20.6"/>
	</g>
</g>
<rect x="-86.2" y="965.5" fill="#FFFFFF" width="1434.1" height="4038.7"/>
</svg>
